<svg width="24" height="24" viewBox="0 0 24 24" fill="none" xmlns="http://www.w3.org/2000/svg">
<path fill-rule="evenodd" clip-rule="evenodd" d="M20.5272 10.3757C20.1572 9.73366 19.4772 9.52266 18.8282 9.43166C18.1752 9.34066 17.3002 9.34066 16.2422 9.34066H16.1822C15.5522 9.34066 15.1392 9.33366 14.8392 9.29266C14.5682 9.25466 14.4822 9.19866 14.4452 9.16566C14.4182 9.13766 14.3702 9.07266 14.3372 8.83566C14.2982 8.55566 14.2972 8.17266 14.2972 7.55866V7.18466C14.2972 5.59666 14.2972 4.32466 14.1742 3.41866C14.0602 2.56766 13.7872 1.61166 12.8432 1.32166C11.9152 1.03766 11.1372 1.64766 10.5332 2.27566C9.88822 2.94566 9.12322 3.98066 8.16522 5.27666L5.02821 9.52166C4.41821 10.3467 3.90821 11.0357 3.60621 11.6047C3.30221 12.1747 3.08121 12.8527 3.41821 13.5287V13.5307L3.42221 13.5387L3.42621 13.5457L3.43021 13.5537L3.43521 13.5617L3.43921 13.5697L3.44321 13.5777L3.44821 13.5857L3.45221 13.5927L3.45321 13.5947C3.82121 14.2317 4.49721 14.4547 5.15221 14.5547C5.82621 14.6567 6.72621 14.6637 7.81721 14.6637C8.45421 14.6637 8.85921 14.6647 9.15721 14.7037C9.42121 14.7367 9.50022 14.7887 9.53322 14.8177C9.56322 14.8497 9.61621 14.9227 9.65321 15.1677C9.69521 15.4487 9.70221 15.8377 9.70221 16.4447V16.8197C9.70221 18.4067 9.70221 19.6797 9.82421 20.5857C9.93921 21.4357 10.2112 22.3927 11.1552 22.6817C12.0832 22.9657 12.8612 22.3567 13.4652 21.7277C14.1102 21.0577 14.8752 20.0237 15.8332 18.7267L18.9332 14.5337C19.5632 13.6797 20.0832 12.9667 20.3882 12.3737C20.6882 11.7937 20.8972 11.1117 20.5632 10.4417L20.5612 10.4397L20.5582 10.4317L20.5542 10.4237L20.5502 10.4167L20.5462 10.4077L20.5412 10.3997L20.5372 10.3927L20.5322 10.3847L20.5282 10.3777L20.5272 10.3757ZM11.6142 3.31566C11.0452 3.90566 10.3382 4.86066 9.33421 6.21866L6.27221 10.3617C5.61421 11.2517 5.17421 11.8507 4.93021 12.3097C4.81021 12.5327 4.76621 12.6737 4.75321 12.7597C4.74521 12.8127 4.75021 12.8357 4.75621 12.8517C4.78121 12.8867 4.88621 12.9957 5.37821 13.0717C5.91621 13.1537 6.68921 13.1637 7.81721 13.1637H7.86321C8.44021 13.1637 8.94321 13.1637 9.34721 13.2147C9.78021 13.2707 10.2112 13.3957 10.5672 13.7307L10.5732 13.7367L10.5792 13.7417C10.9292 14.0857 11.0712 14.5117 11.1362 14.9447C11.1982 15.3587 11.2022 15.8677 11.2022 16.4447V16.7547C11.2022 18.4217 11.2032 19.5907 11.3102 20.3847C11.3642 20.7807 11.4352 21.0127 11.5042 21.1417C11.5552 21.2387 11.5852 21.2457 11.5942 21.2477H11.5962C11.6062 21.2517 11.6442 21.2647 11.7572 21.2077C11.8992 21.1357 12.1022 20.9817 12.3852 20.6877C12.9532 20.0977 13.6612 19.1427 14.6652 17.7847L17.7262 13.6417C18.3802 12.7567 18.8162 12.1497 19.0562 11.6857C19.2602 11.2887 19.2372 11.1547 19.2242 11.1187C19.2012 11.0857 19.1012 10.9847 18.6212 10.9167C18.0842 10.8417 17.3152 10.8407 16.1812 10.8407C15.5792 10.8407 15.0562 10.8367 14.6332 10.7777C14.1962 10.7177 13.7642 10.5857 13.4112 10.2537L13.4052 10.2477L13.4002 10.2427C13.0472 9.89566 12.9102 9.47066 12.8512 9.04066C12.7962 8.64666 12.7972 8.15766 12.7972 7.60666V7.24866C12.7972 5.58166 12.7952 4.41266 12.6872 3.61866C12.6352 3.22366 12.5632 2.99166 12.4942 2.86166C12.4432 2.76466 12.4142 2.75866 12.4052 2.75666H12.4032L12.4022 2.75566C12.3922 2.75166 12.3552 2.73966 12.2412 2.79566C12.0992 2.86766 11.8972 3.02166 11.6142 3.31566Z" fill="#3300C9"/>
</svg>
