<svg width="16" height="16" viewBox="0 0 16 16" fill="none" xmlns="http://www.w3.org/2000/svg">
<path d="M7.99992 12.1341C9.47268 12.1341 10.6666 10.9402 10.6666 9.46745C10.6666 7.99469 9.47268 6.80078 7.99992 6.80078C6.52716 6.80078 5.33325 7.99469 5.33325 9.46745C5.33325 10.9402 6.52716 12.1341 7.99992 12.1341Z" stroke="#7D7D7D" stroke-miterlimit="10" stroke-linecap="round" stroke-linejoin="round"/>
<path d="M8.16659 8.63281V9.25281C8.16659 9.48615 8.04659 9.70615 7.83992 9.82615L7.33325 10.1328" stroke="#7D7D7D" stroke-miterlimit="10" stroke-linecap="round" stroke-linejoin="round"/>
<path d="M5.33338 14.6667H10.6667C13.3467 14.6667 13.8267 13.5933 13.9667 12.2867L14.4667 6.95333C14.6467 5.32667 14.18 4 11.3334 4H4.66671C1.82005 4 1.35338 5.32667 1.53338 6.95333L2.03338 12.2867C2.17338 13.5933 2.65338 14.6667 5.33338 14.6667Z" stroke="#7D7D7D" stroke-miterlimit="10" stroke-linecap="round" stroke-linejoin="round"/>
<path d="M5.33325 3.9987V3.46536C5.33325 2.28536 5.33325 1.33203 7.46659 1.33203H8.53325C10.6666 1.33203 10.6666 2.28536 10.6666 3.46536V3.9987" stroke="#7D7D7D" stroke-miterlimit="10" stroke-linecap="round" stroke-linejoin="round"/>
<path d="M14.4333 7.33203C13.28 8.17203 12 8.7587 10.6733 9.09203" stroke="#7D7D7D" stroke-miterlimit="10" stroke-linecap="round" stroke-linejoin="round"/>
<path d="M1.74658 7.51172C2.85992 8.27172 4.07325 8.81172 5.33325 9.11839" stroke="#7D7D7D" stroke-miterlimit="10" stroke-linecap="round" stroke-linejoin="round"/>
</svg>
