<svg width="19" height="19" viewBox="0 0 19 19" fill="none" xmlns="http://www.w3.org/2000/svg">
<path fill-rule="evenodd" clip-rule="evenodd" d="M9.97516 9.10524L13.0555 12.1856L12.3842 12.8577L9.02516 9.4987V4.7487H9.97516V9.10524ZM9.50016 17.4154C5.12779 17.4154 1.5835 13.8711 1.5835 9.4987C1.5835 5.12632 5.12779 1.58203 9.50016 1.58203C13.8725 1.58203 17.4168 5.12632 17.4168 9.4987C17.4168 13.8711 13.8725 17.4154 9.50016 17.4154ZM9.50016 16.4654C11.3478 16.4654 13.1198 15.7314 14.4263 14.4249C15.7328 13.1184 16.4668 11.3464 16.4668 9.4987C16.4668 7.65102 15.7328 5.87902 14.4263 4.57252C13.1198 3.26602 11.3478 2.53203 9.50016 2.53203C7.65249 2.53203 5.88049 3.26602 4.57399 4.57252C3.26748 5.87902 2.5335 7.65102 2.5335 9.4987C2.5335 11.3464 3.26748 13.1184 4.57399 14.4249C5.88049 15.7314 7.65249 16.4654 9.50016 16.4654Z" fill="#434343" fill-opacity="0.8"/>
</svg>
