<svg width="16" height="16" viewBox="0 0 16 16" fill="none" xmlns="http://www.w3.org/2000/svg">
<path d="M4.16675 7.9987C4.03414 7.9987 3.90696 8.05138 3.81319 8.14514C3.71943 8.23891 3.66675 8.36609 3.66675 8.4987C3.66675 8.63131 3.71943 8.75848 3.81319 8.85225C3.90696 8.94602 4.03414 8.9987 4.16675 8.9987H4.50008C4.63269 8.9987 4.75987 8.94602 4.85363 8.85225C4.9474 8.75848 5.00008 8.63131 5.00008 8.4987C5.00008 8.36609 4.9474 8.23891 4.85363 8.14514C4.75987 8.05138 4.63269 7.9987 4.50008 7.9987H4.16675ZM3.66675 6.16536C3.66675 6.03276 3.71943 5.90558 3.81319 5.81181C3.90696 5.71804 4.03414 5.66536 4.16675 5.66536H4.50008C4.63269 5.66536 4.75987 5.71804 4.85363 5.81181C4.9474 5.90558 5.00008 6.03276 5.00008 6.16536C5.00008 6.29797 4.9474 6.42515 4.85363 6.51892C4.75987 6.61269 4.63269 6.66536 4.50008 6.66536H4.16675C4.03414 6.66536 3.90696 6.61269 3.81319 6.51892C3.71943 6.42515 3.66675 6.29797 3.66675 6.16536ZM4.16675 3.33203C4.03414 3.33203 3.90696 3.38471 3.81319 3.47848C3.71943 3.57225 3.66675 3.69942 3.66675 3.83203C3.66675 3.96464 3.71943 4.09182 3.81319 4.18558C3.90696 4.27935 4.03414 4.33203 4.16675 4.33203H4.50008C4.63269 4.33203 4.75987 4.27935 4.85363 4.18558C4.9474 4.09182 5.00008 3.96464 5.00008 3.83203C5.00008 3.69942 4.9474 3.57225 4.85363 3.47848C4.75987 3.38471 4.63269 3.33203 4.50008 3.33203H4.16675ZM6.00008 8.4987C6.00008 8.36609 6.05276 8.23891 6.14653 8.14514C6.2403 8.05138 6.36747 7.9987 6.50008 7.9987H6.83341C6.96602 7.9987 7.0932 8.05138 7.18697 8.14514C7.28074 8.23891 7.33341 8.36609 7.33341 8.4987C7.33341 8.63131 7.28074 8.75848 7.18697 8.85225C7.0932 8.94602 6.96602 8.9987 6.83341 8.9987H6.50008C6.36747 8.9987 6.2403 8.94602 6.14653 8.85225C6.05276 8.75848 6.00008 8.63131 6.00008 8.4987ZM6.50008 5.66536C6.36747 5.66536 6.2403 5.71804 6.14653 5.81181C6.05276 5.90558 6.00008 6.03276 6.00008 6.16536C6.00008 6.29797 6.05276 6.42515 6.14653 6.51892C6.2403 6.61269 6.36747 6.66536 6.50008 6.66536H6.83341C6.96602 6.66536 7.0932 6.61269 7.18697 6.51892C7.28074 6.42515 7.33341 6.29797 7.33341 6.16536C7.33341 6.03276 7.28074 5.90558 7.18697 5.81181C7.0932 5.71804 6.96602 5.66536 6.83341 5.66536H6.50008ZM6.00008 3.83203C6.00008 3.69942 6.05276 3.57225 6.14653 3.47848C6.2403 3.38471 6.36747 3.33203 6.50008 3.33203H6.83341C6.96602 3.33203 7.0932 3.38471 7.18697 3.47848C7.28074 3.57225 7.33341 3.69942 7.33341 3.83203C7.33341 3.96464 7.28074 4.09182 7.18697 4.18558C7.0932 4.27935 6.96602 4.33203 6.83341 4.33203H6.50008C6.36747 4.33203 6.2403 4.27935 6.14653 4.18558C6.05276 4.09182 6.00008 3.96464 6.00008 3.83203ZM8.83342 7.9987C8.70081 7.9987 8.57363 8.05138 8.47986 8.14514C8.38609 8.23891 8.33342 8.36609 8.33342 8.4987C8.33342 8.63131 8.38609 8.75848 8.47986 8.85225C8.57363 8.94602 8.70081 8.9987 8.83342 8.9987H9.16675C9.29936 8.9987 9.42653 8.94602 9.5203 8.85225C9.61407 8.75848 9.66675 8.63131 9.66675 8.4987C9.66675 8.36609 9.61407 8.23891 9.5203 8.14514C9.42653 8.05138 9.29936 7.9987 9.16675 7.9987H8.83342ZM8.33342 6.16536C8.33342 6.03276 8.38609 5.90558 8.47986 5.81181C8.57363 5.71804 8.70081 5.66536 8.83342 5.66536H9.16675C9.29936 5.66536 9.42653 5.71804 9.5203 5.81181C9.61407 5.90558 9.66675 6.03276 9.66675 6.16536C9.66675 6.29797 9.61407 6.42515 9.5203 6.51892C9.42653 6.61269 9.29936 6.66536 9.16675 6.66536H8.83342C8.70081 6.66536 8.57363 6.61269 8.47986 6.51892C8.38609 6.42515 8.33342 6.29797 8.33342 6.16536ZM8.83342 3.33203C8.70081 3.33203 8.57363 3.38471 8.47986 3.47848C8.38609 3.57225 8.33342 3.69942 8.33342 3.83203C8.33342 3.96464 8.38609 4.09182 8.47986 4.18558C8.57363 4.27935 8.70081 4.33203 8.83342 4.33203H9.16675C9.29936 4.33203 9.42653 4.27935 9.5203 4.18558C9.61407 4.09182 9.66675 3.96464 9.66675 3.83203C9.66675 3.69942 9.61407 3.57225 9.5203 3.47848C9.42653 3.38471 9.29936 3.33203 9.16675 3.33203H8.83342Z" fill="#434343" fill-opacity="0.8"/>
<path d="M1.33325 13.3346V2.0013C1.33325 1.64768 1.47373 1.30854 1.72378 1.05849C1.97382 0.808445 2.31296 0.667969 2.66659 0.667969H10.6666C11.0202 0.667969 11.3593 0.808445 11.6094 1.05849C11.8594 1.30854 11.9999 1.64768 11.9999 2.0013V13.3346C11.9999 13.4502 11.9859 13.5613 11.9579 13.668H13.3333C13.4217 13.668 13.5064 13.6329 13.569 13.5703C13.6315 13.5078 13.6666 13.423 13.6666 13.3346V8.0013C13.6666 7.94955 13.6545 7.89852 13.6314 7.85223C13.6083 7.80595 13.5746 7.76569 13.5333 7.73464L13.1999 7.48464C13.0938 7.40507 13.0237 7.28662 13.0049 7.15535C12.9862 7.02407 13.0204 6.89072 13.0999 6.78464C13.1795 6.67855 13.2979 6.60841 13.4292 6.58966C13.5605 6.57091 13.6938 6.60507 13.7999 6.68464L14.1333 6.93464C14.4693 7.18664 14.6666 7.5813 14.6666 8.0013V13.3346C14.6666 13.6883 14.5261 14.0274 14.2761 14.2774C14.026 14.5275 13.6869 14.668 13.3333 14.668H10.9586C10.9214 14.6671 10.8844 14.663 10.8479 14.656C10.7884 14.664 10.7279 14.668 10.6666 14.668H8.16658C8.03398 14.668 7.9068 14.6153 7.81303 14.5215C7.71926 14.4278 7.66658 14.3006 7.66658 14.168V12.668H5.66658V14.168C5.66658 14.3006 5.61391 14.4278 5.52014 14.5215C5.42637 14.6153 5.29919 14.668 5.16658 14.668H2.66659C2.31296 14.668 1.97382 14.5275 1.72378 14.2774C1.47373 14.0274 1.33325 13.6883 1.33325 13.3346ZM2.66659 13.668H4.66658V12.168C4.66658 12.0354 4.71926 11.9082 4.81303 11.8144C4.9068 11.7206 5.03398 11.668 5.16658 11.668H8.16658C8.29919 11.668 8.42637 11.7206 8.52014 11.8144C8.61391 11.9082 8.66658 12.0354 8.66658 12.168V13.668H10.6666C10.755 13.668 10.8398 13.6329 10.9023 13.5703C10.9648 13.5078 10.9999 13.423 10.9999 13.3346V2.0013C10.9999 1.9129 10.9648 1.82811 10.9023 1.7656C10.8398 1.70309 10.755 1.66797 10.6666 1.66797H2.66659C2.57818 1.66797 2.4934 1.70309 2.43088 1.7656C2.36837 1.82811 2.33325 1.9129 2.33325 2.0013V13.3346C2.33325 13.423 2.36837 13.5078 2.43088 13.5703C2.4934 13.6329 2.57818 13.668 2.66659 13.668Z" fill="#434343" fill-opacity="0.8"/>
</svg>
