<svg width="40" height="40" viewBox="0 0 40 40" fill="none" xmlns="http://www.w3.org/2000/svg">
<path d="M20.0455 0H19.9545C8.93391 0 0 8.93391 0 19.9545V20.0455C0 31.0661 8.93391 40 19.9545 40H20.0455C31.0661 40 40 31.0661 40 20.0455V19.9545C40 8.93391 31.0661 0 20.0455 0Z" fill="#3300C9"/>
<path d="M13.9966 19C13.9966 16.172 13.9966 14.757 14.8756 13.879C15.7536 13 17.1686 13 19.9966 13H22.9966C25.8246 13 27.2396 13 28.1176 13.879C28.9966 14.757 28.9966 16.172 28.9966 19V24C28.9966 26.828 28.9966 28.243 28.1176 29.121C27.2396 30 25.8246 30 22.9966 30H19.9966C17.1686 30 15.7536 30 14.8756 29.121C13.9966 28.243 13.9966 26.828 13.9966 24V19Z" stroke="white" stroke-width="1.5"/>
<path d="M13.9966 27C13.2009 27 12.4379 26.6839 11.8753 26.1213C11.3127 25.5587 10.9966 24.7956 10.9966 24V18C10.9966 14.229 10.9966 12.343 12.1686 11.172C13.3406 10.001 15.2256 10 18.9966 10H22.9966C23.7922 10 24.5553 10.3161 25.1179 10.8787C25.6805 11.4413 25.9966 12.2044 25.9966 13" stroke="white" stroke-width="1.5"/>
</svg>
