<svg width="40" height="40" viewBox="0 0 40 40" fill="none" xmlns="http://www.w3.org/2000/svg">
<path d="M40 20.0007C40 30.102 32.5124 38.4529 22.7853 39.808C21.8758 39.9341 20.9452 40 20.0007 40C18.9104 40 17.8398 39.9131 16.7971 39.7449C7.27324 38.2118 0 29.9548 0 20.0007C0 8.95491 8.95491 0 19.9993 0C31.0437 0 40 8.95491 40 20.0007Z" fill="#1877F2"/>
<path d="M22.787 16.0534V20.4103H28.1768L27.3233 26.2793H22.787V39.8014C21.8775 39.9275 20.947 39.9934 20.0025 39.9934C18.9122 39.9934 17.8415 39.9065 16.7989 39.7383V26.2793H11.8281V20.4103H16.7989V15.0794C16.7989 11.7721 19.4797 9.08984 22.7884 9.08984V9.09265C22.7982 9.09265 22.8067 9.08984 22.8165 9.08984H28.1782V14.1657H24.6747C23.6335 14.1657 22.7884 15.0107 22.7884 16.052L22.787 16.0534Z" fill="white"/>
</svg>
