<svg width="28" height="28" viewBox="0 0 28 28" fill="none" xmlns="http://www.w3.org/2000/svg">
<mask id="mask0_7_194953" style="mask-type:luminance" maskUnits="userSpaceOnUse" x="3" y="2" width="21" height="24">
<path fill-rule="evenodd" clip-rule="evenodd" d="M3.5 2.34375H23.3948V25.5062H3.5V2.34375Z" fill="white"/>
</mask>
<g mask="url(#mask0_7_194953)">
<path fill-rule="evenodd" clip-rule="evenodd" d="M8.83529 4.09375C6.90212 4.09375 5.29679 5.65942 5.25129 7.59025V20.0678C5.20812 22.0663 6.78312 23.7124 8.76179 23.7568H18.1698C20.117 23.6763 21.6593 22.0581 21.6453 20.0748V9.72642L16.2378 4.09375H8.84929H8.83529ZM8.84929 25.5068H8.72212C5.77979 25.4403 3.43712 22.9926 3.50129 20.0491V7.56925C3.56895 4.67475 5.95945 2.34375 8.83295 2.34375H8.85279H16.6111C16.8491 2.34375 17.0766 2.44058 17.2423 2.61208L23.1515 8.76858C23.3078 8.93075 23.3953 9.14892 23.3953 9.37408V20.0678C23.4163 22.9949 21.1366 25.3866 18.2048 25.5056L8.84929 25.5068Z" fill="#3300C9"/>
</g>
<path fill-rule="evenodd" clip-rule="evenodd" d="M22.5149 10.48H19.3007C17.1657 10.4742 15.4297 8.73353 15.4297 6.60086V3.20703C15.4297 2.72403 15.8217 2.33203 16.3047 2.33203C16.7877 2.33203 17.1797 2.72403 17.1797 3.20703V6.60086C17.1797 7.7722 18.1329 8.72653 19.303 8.73003H22.5149C22.9979 8.73003 23.3899 9.12203 23.3899 9.60503C23.3899 10.088 22.9979 10.48 22.5149 10.48Z" fill="#3300C9"/>
<path fill-rule="evenodd" clip-rule="evenodd" d="M16.0871 18.793H9.78711C9.30411 18.793 8.91211 18.401 8.91211 17.918C8.91211 17.435 9.30411 17.043 9.78711 17.043H16.0871C16.5701 17.043 16.9621 17.435 16.9621 17.918C16.9621 18.401 16.5701 18.793 16.0871 18.793Z" fill="#3300C9"/>
<path fill-rule="evenodd" clip-rule="evenodd" d="M13.7005 14.4141H9.78516C9.30216 14.4141 8.91016 14.0221 8.91016 13.5391C8.91016 13.0561 9.30216 12.6641 9.78516 12.6641H13.7005C14.1835 12.6641 14.5755 13.0561 14.5755 13.5391C14.5755 14.0221 14.1835 14.4141 13.7005 14.4141Z" fill="#3300C9"/>
</svg>
