<svg width="18" height="18" viewBox="0 0 18 18" fill="none" xmlns="http://www.w3.org/2000/svg">
<path d="M11.6864 9.0053C11.6864 10.4903 10.4864 11.6903 9.00139 11.6903C7.51639 11.6903 6.31641 10.4903 6.31641 9.0053C6.31641 7.5203 7.51639 6.32031 9.00139 6.32031C10.4864 6.32031 11.6864 7.5203 11.6864 9.0053Z" stroke="#7D7D7D" stroke-width="1.125" stroke-linecap="round" stroke-linejoin="round"/>
<path d="M8.99888 15.1977C11.6464 15.1977 14.1139 13.6377 15.8314 10.9377C16.5064 9.88018 16.5064 8.10268 15.8314 7.04516C14.1139 4.34516 11.6464 2.78516 8.99888 2.78516C6.35141 2.78516 3.88391 4.34516 2.16641 7.04516C1.49141 8.10268 1.49141 9.88018 2.16641 10.9377C3.88391 13.6377 6.35141 15.1977 8.99888 15.1977Z" stroke="#7D7D7D" stroke-width="1.125" stroke-linecap="round" stroke-linejoin="round"/>
</svg>
