<svg width="40" height="40" viewBox="0 0 40 40" fill="none" xmlns="http://www.w3.org/2000/svg">
<path d="M20.0455 0H19.9545C8.93392 0 0 8.93391 0 19.9545V20.0455C0 31.0661 8.93392 40 19.9545 40H20.0455C31.0661 40 40 31.0661 40 20.0455V19.9545C40 8.93391 31.0661 0 20.0455 0Z" fill="url(#paint0_linear_7_193890)"/>
<path d="M26.1916 8.13281H13.8145C10.395 8.13281 7.61328 10.9146 7.61328 14.334V25.6572C7.61328 29.0767 10.395 31.8584 13.8145 31.8584H26.1916C29.611 31.8584 32.3927 29.0767 32.3927 25.6572V14.334C32.3927 10.9146 29.611 8.13281 26.1916 8.13281ZM9.80086 14.334C9.80086 12.1212 11.6016 10.3204 13.8145 10.3204H26.1916C28.4044 10.3204 30.2052 12.1212 30.2052 14.334V25.6572C30.2052 27.8701 28.4044 29.6708 26.1916 29.6708H13.8145C11.6016 29.6708 9.80086 27.8701 9.80086 25.6572V14.334Z" fill="white"/>
<path d="M20.0025 25.7628C23.1823 25.7628 25.7707 23.1759 25.7707 19.9947C25.7707 16.8135 23.1837 14.2266 20.0025 14.2266C16.8214 14.2266 14.2344 16.8135 14.2344 19.9947C14.2344 23.1759 16.8214 25.7628 20.0025 25.7628ZM20.0025 16.4155C21.9771 16.4155 23.5831 18.0215 23.5831 19.9961C23.5831 21.9707 21.9771 23.5767 20.0025 23.5767C18.028 23.5767 16.422 21.9707 16.422 19.9961C16.422 18.0215 18.028 16.4155 20.0025 16.4155Z" fill="white"/>
<path d="M26.3041 15.1561C27.1604 15.1561 27.8583 14.4594 27.8583 13.6015C27.8583 12.7436 27.1618 12.0469 26.3041 12.0469C25.4465 12.0469 24.75 12.7436 24.75 13.6015C24.75 14.4594 25.4465 15.1561 26.3041 15.1561Z" fill="white"/>
<defs>
<linearGradient id="paint0_linear_7_193890" x1="5.84381" y1="34.1562" x2="34.1562" y2="5.84522" gradientUnits="userSpaceOnUse">
<stop stop-color="#FAAD4F"/>
<stop offset="0.35" stop-color="#DD2A7B"/>
<stop offset="0.62" stop-color="#9537B0"/>
<stop offset="1" stop-color="#515BD4"/>
</linearGradient>
</defs>
</svg>
