<svg width="40" height="40" viewBox="0 0 40 40" fill="none" xmlns="http://www.w3.org/2000/svg">
<path d="M20.0455 0H19.9545C8.93393 0 0 8.93392 0 19.9545V20.0455C0 31.0661 8.93393 40 19.9545 40H20.0455C31.0661 40 40 31.0661 40 20.0455V19.9545C40 8.93392 31.0661 0 20.0455 0Z" fill="#007EBB"/>
<path d="M9.53897 13.2904C9.01204 12.8013 8.75 12.1959 8.75 11.4756C8.75 10.7553 9.01345 10.1233 9.53897 9.63277C10.0659 9.14368 10.7442 8.89844 11.5752 8.89844C12.4062 8.89844 13.0579 9.14368 13.5834 9.63277C14.1103 10.1219 14.3724 10.7371 14.3724 11.4756C14.3724 12.2141 14.1089 12.8013 13.5834 13.2904C13.0565 13.7795 12.388 14.0247 11.5752 14.0247C10.7624 14.0247 10.0659 13.7795 9.53897 13.2904ZM13.9295 16.096V31.0909H9.19143V16.096H13.9295Z" fill="#FEFFFC"/>
<path d="M29.7047 17.5801C30.7376 18.7012 31.2533 20.24 31.2533 22.1991V30.8289H26.7534V22.8073C26.7534 21.8193 26.497 21.0514 25.9855 20.5048C25.474 19.9583 24.7845 19.6836 23.9212 19.6836C23.058 19.6836 22.3684 19.9569 21.8569 20.5048C21.3454 21.0514 21.089 21.8193 21.089 22.8073V30.8289H16.5625V16.0568H21.089V18.0159C21.5472 17.3629 22.1653 16.8472 22.9416 16.4674C23.718 16.0876 24.5911 15.8984 25.5622 15.8984C27.2916 15.8984 28.6733 16.459 29.7047 17.5801Z" fill="#FEFFFC"/>
</svg>
