<svg width="40" height="40" viewBox="0 0 40 40" fill="none" xmlns="http://www.w3.org/2000/svg">
<path d="M20.0455 0H19.9545C8.93391 0 0 8.93391 0 19.9545V20.0455C0 31.0661 8.93391 40 19.9545 40H20.0455C31.0661 40 40 31.0661 40 20.0455V19.9545C40 8.93391 31.0661 0 20.0455 0Z" fill="#EA4335"/>
<path fill-rule="evenodd" clip-rule="evenodd" d="M9.172 12.1759C8 13.3466 8 15.2332 8 19.0039V21.6706C8 25.4412 8 27.3279 9.172 28.4986C10.3427 29.6706 12.2293 29.6706 16 29.6706H24C27.7707 29.6706 29.6573 29.6706 30.828 28.4986C32 27.3279 32 25.4412 32 21.6706V19.0039C32 15.2332 32 13.3466 30.828 12.1759C29.6573 11.0039 27.7707 11.0039 24 11.0039H16C12.2293 11.0039 10.3427 11.0039 9.172 12.1759ZM12.74 15.2279C12.4458 15.0316 12.0857 14.9603 11.7388 15.0296C11.392 15.0988 11.0869 15.303 10.8907 15.5972C10.6944 15.8915 10.6231 16.2516 10.6923 16.5984C10.7616 16.9452 10.9658 17.2503 11.26 17.4466L18.5213 22.2866C18.9593 22.5784 19.4738 22.7341 20 22.7341C20.5262 22.7341 21.0407 22.5784 21.4787 22.2866L28.74 17.4466C29.0342 17.2503 29.2384 16.9452 29.3077 16.5984C29.3769 16.2516 29.3056 15.8915 29.1093 15.5972C28.9131 15.303 28.608 15.0988 28.2612 15.0296C27.9143 14.9603 27.5542 15.0316 27.26 15.2279L20 20.0679L12.74 15.2279Z" fill="white"/>
</svg>
