<svg width="28" height="28" viewBox="0 0 28 28" fill="none" xmlns="http://www.w3.org/2000/svg">
<path d="M15.166 10.4987H21.5827L15.166 4.08203V10.4987ZM6.99935 2.33203H16.3327L23.3327 9.33203V23.332C23.3327 23.9509 23.0868 24.5444 22.6493 24.9819C22.2117 25.4195 21.6182 25.6654 20.9993 25.6654H6.99935C6.38051 25.6654 5.78702 25.4195 5.34943 24.9819C4.91185 24.5444 4.66602 23.9509 4.66602 23.332V4.66536C4.66602 4.04653 4.91185 3.45303 5.34943 3.01545C5.78702 2.57786 6.38051 2.33203 6.99935 2.33203ZM12.751 14.512C13.2293 15.562 13.836 16.4254 14.536 17.0204L15.0143 17.3937C13.9993 17.5804 12.5993 17.907 11.1177 18.4787L10.9893 18.5254L11.5727 17.312C12.0977 16.297 12.4827 15.3754 12.751 14.512ZM20.311 18.957C20.521 18.747 20.626 18.4787 20.6377 18.187C20.6727 17.9537 20.6143 17.732 20.4977 17.5454C20.1593 16.997 19.2843 16.7404 17.8377 16.7404L16.3327 16.822L15.3177 16.1454C14.5827 15.5387 13.9177 14.477 13.451 13.1587L13.4977 12.9954C13.8827 11.4437 14.2443 9.56536 13.4743 8.79536C13.3802 8.70391 13.2688 8.63207 13.1466 8.584C13.0244 8.53594 12.8939 8.51261 12.7627 8.51537H12.4827C12.051 8.51537 11.666 8.97036 11.561 9.4137C11.1293 10.9654 11.386 11.817 11.8177 13.2287V13.2404C11.526 14.267 11.1527 15.457 10.5577 16.6587L9.43768 18.7587L8.39935 19.3304C6.99935 20.2054 6.33435 21.1854 6.20602 21.8037C6.15935 22.0254 6.18268 22.2237 6.26435 22.4337L6.29935 22.492L6.85935 22.8537L7.37268 22.982C8.31768 22.982 9.39102 21.8737 10.8377 19.4004L11.0477 19.3187C12.2493 18.9337 13.7427 18.6654 15.7493 18.4437C16.951 19.0387 18.3627 19.307 19.2493 19.307C19.7627 19.307 20.1127 19.1787 20.311 18.957ZM19.8327 18.1287L19.9377 18.257C19.926 18.3737 19.891 18.3854 19.8327 18.4087H19.786L19.5643 18.432C19.0277 18.432 18.1993 18.2104 17.3477 17.837C17.4527 17.7204 17.4993 17.7204 17.616 17.7204C19.2493 17.7204 19.716 18.012 19.8327 18.1287ZM9.13435 19.832C8.37602 21.2204 7.68768 21.9904 7.16268 22.1654C7.22102 21.722 7.74602 20.952 8.57435 20.1937L9.13435 19.832ZM12.6577 11.7704C12.3893 10.7204 12.3777 9.8687 12.576 9.3787L12.6577 9.2387L12.8327 9.29703C13.031 9.57703 13.0543 9.95036 12.9377 10.5804L12.9027 10.767L12.716 11.7237L12.6577 11.7704Z" fill="#EF5350"/>
</svg>
