<svg width="24" height="24" viewBox="0 0 24 24" fill="none" xmlns="http://www.w3.org/2000/svg">
<path d="M11.5248 2.2988C11.5687 2.21026 11.6364 2.13573 11.7203 2.08363C11.8042 2.03152 11.9011 2.00391 11.9998 2.00391C12.0986 2.00391 12.1955 2.03152 12.2794 2.08363C12.3633 2.13573 12.431 2.21026 12.4748 2.2988L14.7848 6.9778C14.937 7.28577 15.1617 7.55221 15.4395 7.75425C15.7173 7.9563 16.04 8.08791 16.3798 8.1378L21.5458 8.8938C21.6437 8.90798 21.7357 8.94927 21.8113 9.013C21.887 9.07673 21.9433 9.16035 21.9739 9.25441C22.0045 9.34846 22.0081 9.44921 21.9844 9.54524C21.9607 9.64127 21.9107 9.72875 21.8398 9.7978L18.1038 13.4358C17.8575 13.6759 17.6731 13.9723 17.5667 14.2994C17.4602 14.6266 17.4349 14.9747 17.4928 15.3138L18.3748 20.4538C18.3921 20.5516 18.3816 20.6524 18.3443 20.7445C18.3071 20.8366 18.2448 20.9164 18.1644 20.9748C18.084 21.0332 17.9888 21.0678 17.8897 21.0747C17.7906 21.0816 17.6915 21.0605 17.6038 21.0138L12.9858 18.5858C12.6816 18.426 12.343 18.3425 11.9993 18.3425C11.6557 18.3425 11.3171 18.426 11.0128 18.5858L6.39585 21.0138C6.30818 21.0602 6.20924 21.0811 6.1103 21.0741C6.01135 21.067 5.91636 21.0324 5.83614 20.974C5.75592 20.9157 5.69368 20.836 5.6565 20.744C5.61933 20.6521 5.6087 20.5515 5.62585 20.4538L6.50685 15.3148C6.56504 14.9755 6.53983 14.6272 6.43338 14.2998C6.32694 13.9725 6.14245 13.676 5.89585 13.4358L2.15985 9.7988C2.08844 9.72983 2.03784 9.64219 2.01381 9.54587C1.98978 9.44955 1.99328 9.34842 2.02393 9.25399C2.05457 9.15956 2.11111 9.07564 2.18712 9.01178C2.26313 8.94792 2.35555 8.9067 2.45385 8.8928L7.61885 8.1378C7.9591 8.0883 8.28224 7.95686 8.56043 7.75479C8.83863 7.55272 9.06355 7.28607 9.21585 6.9778L11.5248 2.2988Z" stroke="#FFC738" stroke-width="1.8" stroke-linecap="round" stroke-linejoin="round"/>
</svg>
