<svg width="40" height="40" viewBox="0 0 40 40" fill="none" xmlns="http://www.w3.org/2000/svg">
<path d="M39.9972 20.0007C39.9972 30.102 32.5098 38.4529 22.7831 39.808C21.8736 39.9341 20.9431 40 19.9986 40C18.9083 40 17.8377 39.9131 16.7951 39.7449C7.27298 38.2118 0 29.9548 0 20.0007C0 8.95491 8.95459 0 20 0C31.0454 0 40 8.95491 40 20.0007H39.9972Z" fill="#1C1C1B"/>
<path d="M8.11215 8.8125L17.3358 21.1448L8.05469 31.1717H10.1441L18.2705 22.3934L24.8358 31.1717H31.9448L22.2027 18.1458L30.842 8.8125H28.7526L21.2694 16.8971L15.2226 8.8125H8.11353H8.11215ZM11.1839 10.3512H14.449L28.8703 29.633H25.6051L11.1839 10.3512Z" fill="white"/>
</svg>
