<svg width="40" height="40" viewBox="0 0 40 40" fill="none" xmlns="http://www.w3.org/2000/svg">
<path d="M20.0455 0H19.9545C8.93391 0 0 8.93391 0 19.9545V20.0455C0 31.0661 8.93391 40 19.9545 40H20.0455C31.0661 40 40 31.0661 40 20.0455V19.9545C40 8.93391 31.0661 0 20.0455 0Z" fill="#00E510"/>
<path d="M23.8989 25.8417C18.7796 25.8417 14.6147 21.6754 14.6133 16.5561C14.6147 15.2584 15.6713 14.2031 16.9662 14.2031C17.0994 14.2031 17.2311 14.2143 17.3572 14.2368C17.6347 14.283 17.8982 14.3769 18.1406 14.5184C18.1756 14.5395 18.1994 14.5731 18.2051 14.6123L18.746 18.0219C18.753 18.0626 18.7404 18.1018 18.7138 18.1312C18.4153 18.462 18.0341 18.7002 17.6095 18.8193L17.4049 18.8768L17.4819 19.0744C18.1798 20.8513 19.6008 22.271 21.3792 22.9716L21.5768 23.0501L21.6343 22.8455C21.7534 22.4209 21.9916 22.0397 22.3224 21.7412C22.3462 21.7188 22.3784 21.7076 22.4106 21.7076C22.4176 21.7076 22.4247 21.7076 22.4331 21.709L25.8427 22.2499C25.8833 22.2569 25.9169 22.2794 25.938 22.3144C26.0781 22.5568 26.172 22.8217 26.2196 23.0992C26.2421 23.2225 26.2519 23.3528 26.2519 23.4888C26.2519 24.7851 25.1966 25.8403 23.8989 25.8417Z" fill="#FDFDFD"/>
<path d="M32.9758 18.868C32.6998 15.7485 31.2703 12.8547 28.951 10.7203C26.6177 8.5734 23.5907 7.39062 20.4249 7.39062C13.4768 7.39062 7.82361 13.0438 7.82361 19.992C7.82361 22.3239 8.46684 24.5955 9.68465 26.5743L6.96875 32.5863L15.6644 31.66C17.1765 32.2794 18.7769 32.5933 20.4235 32.5933C20.8566 32.5933 21.3008 32.5709 21.7465 32.5246C22.1389 32.4826 22.5355 32.4209 22.925 32.3425C28.7436 31.1667 32.9912 26.0025 33.0249 20.0592V19.992C33.0249 19.6136 33.0081 19.2352 32.9744 18.868H32.9758ZM15.9993 29.0211L11.1884 29.5341L12.6248 26.3515L12.3375 25.9661C12.3165 25.9381 12.2955 25.9101 12.2716 25.8778C11.0244 24.1555 10.3657 22.1207 10.3657 19.9934C10.3657 14.4466 14.8782 9.93416 20.4249 9.93416C25.6213 9.93416 30.0259 13.9884 30.4505 19.1637C30.4729 19.4412 30.4856 19.7201 30.4856 19.9948C30.4856 20.0732 30.4841 20.1503 30.4827 20.233C30.3762 24.873 27.1348 28.8137 22.5999 29.8171C22.2538 29.8942 21.8992 29.9531 21.5461 29.9909C21.1789 30.033 20.8019 30.054 20.4277 30.054C19.095 30.054 17.8001 29.7961 16.5767 29.286C16.4408 29.2314 16.3076 29.1725 16.1829 29.1122L16.0007 29.024L15.9993 29.0211Z" fill="#FDFDFD"/>
</svg>
