<svg width="32" height="32" viewBox="0 0 32 32" fill="none" xmlns="http://www.w3.org/2000/svg">
<path d="M10.6668 29.3333H21.3334C26.6934 29.3333 27.6534 27.1867 27.9334 24.5733L28.9334 13.9067C29.2934 10.6533 28.3601 8 22.6668 8H9.33343C3.64009 8 2.70676 10.6533 3.06676 13.9067L4.06676 24.5733C4.34676 27.1867 5.30676 29.3333 10.6668 29.3333Z" stroke="white" stroke-width="2" stroke-miterlimit="10" stroke-linecap="round" stroke-linejoin="round"/>
<path d="M10.667 8.0013V6.93464C10.667 4.57464 10.667 2.66797 14.9337 2.66797H17.067C21.3337 2.66797 21.3337 4.57464 21.3337 6.93464V8.0013" stroke="white" stroke-width="2" stroke-miterlimit="10" stroke-linecap="round" stroke-linejoin="round"/>
<path d="M18.6663 17.3333V18.6667C18.6663 18.68 18.6663 18.68 18.6663 18.6933C18.6663 20.1467 18.653 21.3333 15.9997 21.3333C13.3597 21.3333 13.333 20.16 13.333 18.7067V17.3333C13.333 16 13.333 16 14.6663 16H17.333C18.6663 16 18.6663 16 18.6663 17.3333Z" stroke="white" stroke-width="2" stroke-miterlimit="10" stroke-linecap="round" stroke-linejoin="round"/>
<path d="M28.867 14.668C25.787 16.908 22.267 18.2413 18.667 18.6946" stroke="white" stroke-width="2" stroke-miterlimit="10" stroke-linecap="round" stroke-linejoin="round"/>
<path d="M3.49316 15.0273C6.49316 17.0807 9.87983 18.3207 13.3332 18.7073" stroke="white" stroke-width="2" stroke-miterlimit="10" stroke-linecap="round" stroke-linejoin="round"/>
</svg>
